<?xml version="1.0" encoding="UTF-8" standalone="no"?>
<!DOCTYPE svg PUBLIC "-//W3C//DTD SVG 1.1//EN" "http://www.w3.org/Graphics/SVG/1.1/DTD/svg11.dtd">
<svg width="100%" height="100%" viewBox="0 0 87 83" version="1.1" xmlns="http://www.w3.org/2000/svg" xmlns:xlink="http://www.w3.org/1999/xlink" xml:space="preserve" xmlns:serif="http://www.serif.com/" style="fill-rule:evenodd;clip-rule:evenodd;stroke-linejoin:round;stroke-miterlimit:2;">
    <g transform="matrix(1,0,0,1,-11.7574,-18.5111)">
        <g transform="matrix(1,0,0,1,5,10)">
            <path d="M86.582,85.066L86.582,86.078L86.57,86.078L86.57,79.984L84.082,79.984L84.082,38.351L84.867,38.878C85.394,39.23 85.988,39.406 86.57,39.406C87.559,39.406 88.516,38.933 89.098,38.07C90.043,36.679 89.68,34.773 88.285,33.827L51.703,9.038C50.664,8.335 49.312,8.335 48.285,9.038L11.687,33.823C10.296,34.769 9.929,36.675 10.875,38.066C11.82,39.456 13.71,39.823 15.117,38.878L15.914,38.339L15.914,79.987L13.406,79.987L13.406,85.069C9.203,85.702 6.757,86.471 6.757,87.296C6.757,89.593 26.109,91.483 49.999,91.483C73.862,91.483 93.241,89.593 93.241,87.296C93.241,86.472 90.796,85.702 86.581,85.065L86.582,85.066ZM83.066,79.988L16.933,79.988L16.933,61.027C17.285,61.406 17.785,61.648 18.351,61.648C19.406,61.648 20.269,60.812 20.269,59.73L20.269,57.394C20.269,56.312 21.148,55.449 22.203,55.449C23.269,55.449 24.121,56.312 24.121,57.394L24.121,63.582C24.121,64.648 25,65.527 26.066,65.527C27.121,65.527 28,64.648 28,63.582L28,54.636C28,53.582 28.863,52.718 29.918,52.718L29.945,52.718C31.012,52.718 31.863,53.582 31.863,54.636L31.863,58.148C31.863,59.214 32.742,60.082 33.809,60.082C34.863,60.082 35.742,59.218 35.742,58.148L35.742,56.257C35.742,55.191 36.73,54.406 37.781,54.406L37.863,57.121C37.863,58.175 38.715,59.039 39.797,59.039C40.852,59.039 41.715,58.175 41.715,57.121L41.715,54.757C41.715,53.703 42.594,52.839 43.648,52.839C44.715,52.839 45.594,53.703 45.594,54.757L45.594,60.972C45.594,61.96 46.297,62.757 47.242,62.878L47.242,59.296C47.242,57.538 48.121,55.96 49.445,55.011L49.445,52.027C49.445,51.488 49.648,51.015 50,50.663L37.582,50.663C33.918,50.663 30.918,47.675 30.918,43.999L30.918,37.163C30.918,33.488 33.918,30.499 37.582,30.499L62.055,30.499C63.067,30.499 64.043,30.73 64.907,31.136L64.907,25.367L83.071,37.664L83.066,79.988Z" style="fill-rule:nonzero;"/>
            <path d="M66.23,39.582L65.066,39.582L65.066,37.164C65.066,35.5 63.714,34.137 62.039,34.137L37.578,34.137C35.914,34.137 34.55,35.488 34.55,37.164L34.55,44.016C34.55,45.68 35.902,47.043 37.578,47.043L62.039,47.043C63.703,47.043 65.066,45.691 65.066,44.016L65.066,41.598L66.23,41.598C67.054,41.598 67.742,42.285 67.742,43.109L67.742,49.07C67.742,49.894 67.054,50.582 66.23,50.582L57.636,50.582C55.691,50.582 54.097,52.148 54.097,54.094L54.097,57.648L52.515,57.648C51.609,57.648 50.867,58.39 50.867,59.297L50.867,71.863C50.867,74.199 52.773,76.105 55.109,76.105C57.445,76.105 59.351,74.199 59.351,71.863L59.351,59.297C59.351,58.39 58.609,57.648 57.703,57.648L56.121,57.648L56.121,54.094C56.121,53.269 56.785,52.582 57.632,52.582L66.226,52.582C68.172,52.582 69.738,51.015 69.738,49.07L69.738,43.109C69.757,41.148 68.175,39.582 66.23,39.582ZM62.039,46.012L37.578,46.012C36.468,46.012 35.566,45.105 35.566,44L35.566,41.566L64.054,41.566L64.054,44C64.054,45.109 63.148,46.012 62.038,46.012L62.039,46.012ZM55.121,75.094C53.335,75.094 51.89,73.648 51.89,71.863L51.89,62.824L58.351,62.824L58.351,71.863C58.351,73.637 56.906,75.094 55.121,75.094L55.121,75.094Z" style="fill-rule:nonzero;"/>
        </g>
    </g>
</svg>
