<?xml version="1.0" encoding="UTF-8" standalone="no"?>
<!DOCTYPE svg PUBLIC "-//W3C//DTD SVG 1.1//EN" "http://www.w3.org/Graphics/SVG/1.1/DTD/svg11.dtd">
<svg width="100%" height="100%" viewBox="0 0 88 95" version="1.1" xmlns="http://www.w3.org/2000/svg" xmlns:xlink="http://www.w3.org/1999/xlink" xml:space="preserve" xmlns:serif="http://www.serif.com/" style="fill-rule:evenodd;clip-rule:evenodd;stroke-linejoin:round;stroke-miterlimit:2;">
    <g transform="matrix(1,0,0,1,-11.4646,-12.7777)">
        <g transform="matrix(1,0,0,1,5,10)">
            <path d="M85.969,32.293L81.238,32.293L81.238,28.691C81.238,25.793 78.883,23.438 75.985,23.438L23.528,23.438C20.629,23.438 18.274,25.793 18.274,28.691L18.274,41.796C18.274,44.695 20.629,47.05 23.528,47.05L75.985,47.05C78.883,47.05 81.238,44.695 81.238,41.796L81.238,35.246L85.969,35.246C88.512,35.246 90.582,37.316 90.582,39.859L90.582,48.339C90.582,50.882 88.512,52.953 85.969,52.953L71.508,52.953C67.379,52.953 64.02,56.312 64.02,60.441L64.02,65.265C62.371,65.398 61.067,66.777 61.067,68.461L61.067,94.02C61.067,95.789 62.504,97.227 64.274,97.227L66.715,97.227C68.485,97.227 69.922,95.789 69.922,94.02L69.922,68.458C69.922,66.774 68.621,65.395 66.969,65.262L66.969,60.438C66.969,57.938 69.004,55.903 71.504,55.903L85.965,55.903C90.137,55.903 93.531,52.508 93.531,48.336L93.531,39.856C93.531,35.688 90.141,32.293 85.969,32.293L85.969,32.293Z" style="fill-rule:nonzero;"/>
            <rect x="12.371" y="32.293" width="2.953" height="5.902" style="fill-rule:nonzero;"/>
            <path d="M15.32,41.797L15.32,41.149L10.894,41.145C10.078,41.145 9.418,40.484 9.418,39.668L9.418,30.813C9.418,29.996 10.078,29.336 10.894,29.336L15.32,29.336L15.32,28.688C15.32,24.164 19,20.484 23.523,20.484L50.734,20.484L50.738,10C50.738,6.016 47.5,2.778 43.515,2.778L13.687,2.778C9.707,2.778 6.465,6.016 6.465,10L6.465,72.137C6.465,77.02 10.437,80.993 15.32,80.993C20.211,80.993 24.176,77.032 24.176,72.137L24.176,61.805C24.176,56.923 28.148,52.95 33.031,52.95C37.965,52.95 41.887,56.95 41.887,61.805L41.887,63.282C41.887,65.723 43.871,67.708 46.312,67.708C48.758,67.708 50.738,65.727 50.738,63.282L50.738,50.001L23.527,50.001C19.004,50.001 15.32,46.321 15.32,41.798L15.32,41.797Z" style="fill-rule:nonzero;"/>
        </g>
    </g>
</svg>
