<?xml version="1.0" encoding="UTF-8" standalone="no"?>
<!DOCTYPE svg PUBLIC "-//W3C//DTD SVG 1.1//EN" "http://www.w3.org/Graphics/SVG/1.1/DTD/svg11.dtd">
<svg width="100%" height="100%" viewBox="0 0 88 81" version="1.1" xmlns="http://www.w3.org/2000/svg" xmlns:xlink="http://www.w3.org/1999/xlink" xml:space="preserve" xmlns:serif="http://www.serif.com/" style="fill-rule:evenodd;clip-rule:evenodd;stroke-linejoin:round;stroke-miterlimit:2;">
    <g transform="matrix(1,0,0,1,-11.25,-19.7965)">
        <g>
            <g transform="matrix(1,0,0,1,5,10)">
                <path d="M93.75,14.484C93.75,11.894 91.652,9.797 89.063,9.797L10.938,9.797C8.348,9.797 6.25,11.894 6.25,14.484L6.25,71.984C6.25,74.574 8.348,76.672 10.938,76.672L27.657,76.672L27.657,83.515C27.828,87.086 30.774,89.894 34.352,89.894C37.93,89.894 40.875,87.086 41.047,83.515L41.047,76.672L89.063,76.672C91.653,76.672 93.751,74.574 93.751,71.984L93.75,14.484ZM64.5,39.281C62.547,38.531 61.828,36.156 61.219,34.406L72.672,34.406L72.672,43.015L64.5,39.281ZM60.094,31.25L58.938,28.125C58.059,25.687 56.027,23.844 53.516,23.203L51.719,22.734C49.926,22.281 48.57,20.82 48.25,19L47.141,12.922L63.047,12.922L63.047,31.25L60.094,31.25ZM75.719,34.375L90.625,34.375L90.625,42.187C88.234,42.109 83.828,41.219 81.594,42.359C80.156,42.859 77.391,44.453 75.812,44.125L75.719,34.375ZM90.625,14.484L90.625,31.25L66.172,31.25L66.172,12.922L89.063,12.922C89.477,12.922 89.875,13.086 90.168,13.379C90.461,13.672 90.625,14.07 90.625,14.484L90.625,14.484ZM34.375,87.078C32.406,87.078 30.805,85.484 30.797,83.515L30.797,71.874L37.937,71.874L37.937,83.53C37.929,85.491 36.336,87.077 34.375,87.077L34.375,87.078ZM89.063,73.547L41.047,73.547L41.047,71.875C41.047,71.047 40.719,70.25 40.133,69.664C39.547,69.078 38.75,68.75 37.922,68.75L35.937,68.75L35.937,63.812C35.953,63.269 36.246,62.773 36.719,62.5L54.469,52.5C55.937,51.676 56.851,50.121 56.859,48.437L56.859,41.547C56.859,38.957 54.762,36.859 52.172,36.859L47.594,36.859L47.594,35.297C47.594,32.707 45.496,30.609 42.906,30.609L19.187,30.609C16.597,30.609 14.5,32.707 14.5,35.297L14.5,41.547C14.5,44.137 16.597,46.234 19.187,46.234L42.906,46.234C45.496,46.234 47.594,44.137 47.594,41.547L47.594,39.984L52.172,39.984C52.586,39.984 52.984,40.148 53.277,40.441C53.57,40.734 53.734,41.133 53.734,41.547L53.734,48.437C53.734,49 53.43,49.519 52.937,49.797L35.187,59.797C33.738,60.617 32.836,62.148 32.812,63.812L32.812,68.75L30.781,68.75C29.055,68.75 27.656,70.148 27.656,71.875L27.656,73.562L10.937,73.562C10.074,73.562 9.375,72.863 9.375,72L9.375,14.484C9.375,13.621 10.074,12.921 10.937,12.921L43.968,12.921L45.171,19.562C45.71,22.589 47.96,25.031 50.937,25.812C53.046,26.234 55.265,26.984 55.999,29.234L59.124,37.718C59.843,39.683 61.3,41.289 63.187,42.187L72.999,46.672C74.98,47.566 77.238,47.605 79.249,46.781C80.531,46.312 83.484,44.718 84.921,44.968L90.624,45.312L90.624,71.984C90.624,72.398 90.46,72.797 90.167,73.09C89.874,73.383 89.476,73.547 89.062,73.547L89.063,73.547ZM44.469,41.578C44.469,41.992 44.305,42.39 44.012,42.683C43.719,42.976 43.32,43.14 42.906,43.14L19.187,43.14C18.324,43.14 17.625,42.441 17.625,41.578L17.625,35.328C17.625,34.465 18.324,33.765 19.187,33.765L42.906,33.765C43.32,33.765 43.719,33.929 44.012,34.222C44.305,34.515 44.469,34.914 44.469,35.328L44.469,41.578Z" style="fill-rule:nonzero;"/>
            </g>
            <g transform="matrix(1,0,0,1,5,10)">
                <path d="M21.312,55.422C21.726,55.422 22.125,55.258 22.418,54.965C22.71,54.672 22.875,54.274 22.875,53.859L22.875,48.438C22.875,47.574 22.175,46.875 21.312,46.875C20.449,46.875 19.75,47.574 19.75,48.438L19.75,53.797C19.734,54.223 19.89,54.637 20.183,54.941C20.48,55.25 20.886,55.422 21.312,55.422L21.312,55.422Z" style="fill-rule:nonzero;"/>
            </g>
            <g transform="matrix(1,0,0,1,5,10)">
                <path d="M28.25,58.594C28.664,58.594 29.063,58.43 29.356,58.137C29.648,57.844 29.813,57.446 29.813,57.031L29.813,51.688C29.813,50.824 29.113,50.125 28.25,50.125C27.387,50.125 26.688,50.824 26.688,51.688L26.688,57.031C26.688,57.446 26.852,57.844 27.145,58.137C27.438,58.43 27.836,58.594 28.25,58.594L28.25,58.594Z" style="fill-rule:nonzero;"/>
            </g>
            <g transform="matrix(1,0,0,1,5,10)">
                <path d="M36.297,55.422C36.711,55.422 37.109,55.258 37.402,54.965C37.695,54.672 37.86,54.274 37.86,53.859L37.86,48.438C37.86,47.574 37.16,46.875 36.297,46.875C35.434,46.875 34.735,47.574 34.735,48.438L34.735,53.797C34.719,54.223 34.875,54.637 35.168,54.941C35.465,55.25 35.871,55.422 36.297,55.422L36.297,55.422Z" style="fill-rule:nonzero;"/>
            </g>
        </g>
    </g>
</svg>
