<?xml version="1.0" encoding="UTF-8" standalone="no"?>
<!DOCTYPE svg PUBLIC "-//W3C//DTD SVG 1.1//EN" "http://www.w3.org/Graphics/SVG/1.1/DTD/svg11.dtd">
<svg width="100%" height="100%" viewBox="0 0 94 94" version="1.1" xmlns="http://www.w3.org/2000/svg" xmlns:xlink="http://www.w3.org/1999/xlink" xml:space="preserve" xmlns:serif="http://www.serif.com/" style="fill-rule:evenodd;clip-rule:evenodd;stroke-linejoin:round;stroke-miterlimit:2;">
    <g transform="matrix(1,0,0,1,-8.125,-13.1245)">
        <g transform="matrix(1,0,0,1,5,10)">
            <path d="M37.5,45.312C37.5,47.898 35.398,50 32.813,50C30.227,50 28.125,47.898 28.125,45.312C28.125,42.726 30.227,40.625 32.813,40.625C35.398,40.625 37.5,42.726 37.5,45.312ZM96.875,23.437L96.875,34.226C96.875,39.207 93.508,43.562 88.684,44.812L55.86,53.324C55.172,53.503 54.688,54.124 54.688,54.835L54.688,57.812L57.813,57.812C61.258,57.812 64.063,60.617 64.063,64.062C64.063,66.671 62.449,68.91 60.172,69.843C61.66,74.367 62.5,79.413 62.5,83.593C62.5,95.363 55.821,96.874 50,96.874C44.18,96.874 37.5,95.362 37.5,83.593C37.5,79.41 38.336,74.363 39.828,69.843C37.551,68.91 35.938,66.675 35.938,64.062C35.938,60.617 38.742,57.812 42.188,57.812L45.313,57.812L45.313,54.835C45.313,49.855 48.68,45.499 53.504,44.249L86.328,35.738C87.016,35.558 87.5,34.937 87.5,34.226L87.5,23.437C87.5,22.574 86.801,21.874 85.938,21.874L84.375,21.874C84.375,24.46 82.273,26.562 79.688,26.562L78.125,26.562C78.125,29.148 76.023,31.249 73.438,31.249L50,31.249L50,37.499C50,40.085 47.898,42.187 45.312,42.187C42.726,42.187 40.625,40.085 40.625,37.499L40.625,31.249L37.5,31.249L37.5,32.812C37.5,35.398 35.398,37.499 32.812,37.499C30.226,37.499 28.124,35.398 28.124,32.812L28.124,31.249L14.062,31.249C11.477,31.249 9.375,29.148 9.375,26.562L7.812,26.562C5.227,26.562 3.125,24.46 3.125,21.874L3.125,12.499C3.125,9.914 5.227,7.812 7.812,7.812L9.375,7.812C9.375,5.226 11.477,3.124 14.062,3.124L73.438,3.124C76.023,3.124 78.125,5.226 78.125,7.812L79.688,7.812C82.273,7.812 84.375,9.914 84.375,12.499L85.938,12.499C91.969,12.499 96.876,17.406 96.876,23.437L96.875,23.437ZM9.375,10.937L7.813,10.937C6.949,10.937 6.25,11.636 6.25,12.499L6.25,21.874C6.25,22.738 6.949,23.437 7.813,23.437L9.375,23.437L9.375,10.937ZM28.125,23.437C28.125,22.574 27.426,21.874 26.563,21.874L23.438,21.874C19.129,21.874 15.625,18.371 15.625,14.062L15.625,6.249L14.063,6.249C13.199,6.249 12.5,6.949 12.5,7.812L12.5,26.562C12.5,27.425 13.199,28.124 14.063,28.124L28.124,28.124L28.125,23.437ZM40.625,23.437C40.625,22.574 39.926,21.874 39.063,21.874C38.199,21.874 37.5,22.574 37.5,23.437L37.5,28.124L40.625,28.124L40.625,23.437ZM75,7.812C75,6.949 74.301,6.249 73.438,6.249L65.625,6.249L65.625,14.062C65.625,18.371 62.121,21.874 57.813,21.874L51.563,21.874C50.699,21.874 50,22.574 50,23.437L50,28.124L73.438,28.124C74.301,28.124 75.001,27.425 75.001,26.562L75,7.812ZM81.25,12.499C81.25,11.636 80.551,10.937 79.688,10.937L78.125,10.937L78.125,23.437L79.688,23.437C80.551,23.437 81.25,22.738 81.25,21.874L81.25,12.499ZM42.188,60.938C40.465,60.938 39.063,62.34 39.063,64.063C39.063,65.785 40.465,67.188 42.188,67.188L57.813,67.188C59.536,67.188 60.938,65.785 60.938,64.063C60.938,62.34 59.536,60.938 57.813,60.938L42.188,60.938ZM93.75,23.438C93.75,19.129 90.246,15.625 85.938,15.625L84.375,15.625L84.375,18.75L85.938,18.75C88.523,18.75 90.625,20.852 90.625,23.438L90.625,34.227C90.625,36.363 89.18,38.227 87.113,38.766L54.289,47.273C50.844,48.168 48.438,51.277 48.438,54.836L48.438,57.812L51.563,57.812L51.563,54.836C51.563,52.699 53.008,50.836 55.074,50.297L87.898,41.789C91.344,40.894 93.75,37.785 93.75,34.227L93.75,23.438Z" style="fill-rule:nonzero;"/>
        </g>
    </g>
</svg>
