<?xml version="1.0" encoding="UTF-8" standalone="no"?>
<!DOCTYPE svg PUBLIC "-//W3C//DTD SVG 1.1//EN" "http://www.w3.org/Graphics/SVG/1.1/DTD/svg11.dtd">
<svg width="100%" height="100%" viewBox="0 0 2016 595" version="1.1" xmlns="http://www.w3.org/2000/svg" xmlns:xlink="http://www.w3.org/1999/xlink" xml:space="preserve" xmlns:serif="http://www.serif.com/" style="fill-rule:evenodd;clip-rule:evenodd;stroke-linecap:round;stroke-linejoin:round;stroke-miterlimit:1.5;">
    <g transform="matrix(1,0,0,1,-6908.83,-3682.74)">
        <g transform="matrix(0.739493,0,0,2.25187,5481.62,2526.43)">
            <g transform="matrix(0.672473,-0.214045,1.74066,0.58975,-106.161,804.646)">
                <g transform="matrix(1.58688,0,0,0.613252,-8945.62,-2346.4)">
                    <path d="M7036.28,4404.49C7036.28,4404.49 6591.24,4984.81 7138.68,5039.14C7686.13,5093.48 7814.94,5059.1 8275.62,5648.41" style="fill:none;stroke:rgb(255,214,158);stroke-width:1.79px;"/>
                </g>
                <g transform="matrix(1.58688,0,0,0.613252,-8945.62,-2367.32)">
                    <path d="M7036.28,4404.49C7036.28,4404.49 6591.24,4984.81 7138.68,5039.14C7686.13,5093.48 7814.94,5059.1 8275.62,5648.41" style="fill:none;stroke:rgb(158,223,255);stroke-width:1.79px;"/>
                </g>
                <g transform="matrix(1.58688,0,0,0.613252,-8945.62,-2388.24)">
                    <path d="M7036.28,4404.49C7036.28,4404.49 6591.24,4984.81 7138.68,5039.14C7686.13,5093.48 7814.94,5059.1 8275.62,5648.41" style="fill:none;stroke:rgb(255,158,158);stroke-width:1.79px;"/>
                </g>
            </g>
        </g>
    </g>
</svg>
